<mxfile host="app.diagrams.net" modified="2023-05-19T13:24:44.832Z" agent="Mozilla/5.0 (Windows NT 10.0; Win64; x64) AppleWebKit/537.36 (KHTML, like Gecko) Chrome/112.0.0.0 Safari/537.36" etag="K1WL8ykpm475mv-z9elO" version="21.3.0" type="github">
  <diagram name="第 1 页" id="SHI3xq363K08YvJ9_AmA">
    <mxGraphModel dx="1064" dy="499" grid="1" gridSize="10" guides="1" tooltips="1" connect="1" arrows="1" fold="1" page="1" pageScale="1" pageWidth="827" pageHeight="1169" math="0" shadow="0">
      <root>
        <mxCell id="0" />
        <mxCell id="1" parent="0" />
        <mxCell id="dwNiCrabYGl-NqJwSYs2-2" value="&lt;font style=&quot;font-size: 18px;&quot;&gt;Input Feature&lt;/font&gt;" style="shape=cube;whiteSpace=wrap;html=1;boundedLbl=1;backgroundOutline=1;darkOpacity=0.05;darkOpacity2=0.1;fillColor=#dae8fc;strokeColor=#6c8ebf;" vertex="1" parent="1">
          <mxGeometry x="70" y="250" width="100" height="80" as="geometry" />
        </mxCell>
        <mxCell id="dwNiCrabYGl-NqJwSYs2-3" value="" style="endArrow=classic;html=1;rounded=0;exitX=0;exitY=0;exitDx=100;exitDy=50;exitPerimeter=0;entryX=0;entryY=0.5;entryDx=0;entryDy=0;" edge="1" parent="1" source="dwNiCrabYGl-NqJwSYs2-2" target="dwNiCrabYGl-NqJwSYs2-5">
          <mxGeometry width="50" height="50" relative="1" as="geometry">
            <mxPoint x="290" y="310" as="sourcePoint" />
            <mxPoint x="280" y="300" as="targetPoint" />
          </mxGeometry>
        </mxCell>
        <mxCell id="dwNiCrabYGl-NqJwSYs2-5" value="&lt;font style=&quot;font-size: 18px;&quot;&gt;Custom Operations&lt;/font&gt;" style="rounded=0;whiteSpace=wrap;html=1;fillColor=#ffe6cc;strokeColor=#d79b00;" vertex="1" parent="1">
          <mxGeometry x="300" y="270" width="100" height="60" as="geometry" />
        </mxCell>
        <mxCell id="dwNiCrabYGl-NqJwSYs2-6" value="" style="endArrow=classic;html=1;rounded=0;entryX=0;entryY=0.5;entryDx=0;entryDy=0;" edge="1" parent="1" target="dwNiCrabYGl-NqJwSYs2-7">
          <mxGeometry width="50" height="50" relative="1" as="geometry">
            <mxPoint x="120" y="260" as="sourcePoint" />
            <mxPoint x="170" y="210" as="targetPoint" />
          </mxGeometry>
        </mxCell>
        <mxCell id="dwNiCrabYGl-NqJwSYs2-7" value="&lt;font style=&quot;font-size: 18px;&quot;&gt;Channel Attention Module&lt;/font&gt;" style="rounded=0;whiteSpace=wrap;html=1;fillColor=#d5e8d4;strokeColor=#82b366;" vertex="1" parent="1">
          <mxGeometry x="170" y="160" width="120" height="70" as="geometry" />
        </mxCell>
        <mxCell id="dwNiCrabYGl-NqJwSYs2-8" value="" style="endArrow=classic;html=1;rounded=0;exitX=1;exitY=0.5;exitDx=0;exitDy=0;" edge="1" parent="1" source="dwNiCrabYGl-NqJwSYs2-7">
          <mxGeometry width="50" height="50" relative="1" as="geometry">
            <mxPoint x="360" y="240" as="sourcePoint" />
            <mxPoint x="330" y="270" as="targetPoint" />
          </mxGeometry>
        </mxCell>
        <mxCell id="dwNiCrabYGl-NqJwSYs2-9" value="" style="endArrow=classic;html=1;rounded=0;exitX=1;exitY=0.5;exitDx=0;exitDy=0;entryX=0;entryY=0.5;entryDx=0;entryDy=0;" edge="1" parent="1" target="dwNiCrabYGl-NqJwSYs2-10" source="dwNiCrabYGl-NqJwSYs2-5">
          <mxGeometry width="50" height="50" relative="1" as="geometry">
            <mxPoint x="400" y="300" as="sourcePoint" />
            <mxPoint x="510" y="300" as="targetPoint" />
          </mxGeometry>
        </mxCell>
        <mxCell id="dwNiCrabYGl-NqJwSYs2-15" value="" style="edgeStyle=orthogonalEdgeStyle;rounded=0;orthogonalLoop=1;jettySize=auto;html=1;" edge="1" parent="1" source="dwNiCrabYGl-NqJwSYs2-10" target="dwNiCrabYGl-NqJwSYs2-14">
          <mxGeometry relative="1" as="geometry" />
        </mxCell>
        <mxCell id="dwNiCrabYGl-NqJwSYs2-10" value="&lt;font style=&quot;font-size: 18px;&quot;&gt;Custom Operations&lt;/font&gt;" style="rounded=0;whiteSpace=wrap;html=1;fillColor=#ffe6cc;strokeColor=#d79b00;" vertex="1" parent="1">
          <mxGeometry x="530" y="270" width="100" height="60" as="geometry" />
        </mxCell>
        <mxCell id="dwNiCrabYGl-NqJwSYs2-11" value="" style="endArrow=classic;html=1;rounded=0;entryX=0;entryY=0.5;entryDx=0;entryDy=0;exitX=0.75;exitY=0;exitDx=0;exitDy=0;" edge="1" parent="1" target="dwNiCrabYGl-NqJwSYs2-12" source="dwNiCrabYGl-NqJwSYs2-5">
          <mxGeometry width="50" height="50" relative="1" as="geometry">
            <mxPoint x="350" y="260" as="sourcePoint" />
            <mxPoint x="400" y="210" as="targetPoint" />
          </mxGeometry>
        </mxCell>
        <mxCell id="dwNiCrabYGl-NqJwSYs2-12" value="&lt;font style=&quot;font-size: 18px;&quot;&gt;Spatial&lt;br&gt;Attention&lt;br&gt;Module&lt;br&gt;&lt;/font&gt;" style="rounded=0;whiteSpace=wrap;html=1;fillColor=#e1d5e7;strokeColor=#9673a6;" vertex="1" parent="1">
          <mxGeometry x="400" y="160" width="120" height="70" as="geometry" />
        </mxCell>
        <mxCell id="dwNiCrabYGl-NqJwSYs2-13" value="" style="endArrow=classic;html=1;rounded=0;exitX=1;exitY=0.5;exitDx=0;exitDy=0;entryX=0.5;entryY=0;entryDx=0;entryDy=0;" edge="1" parent="1" source="dwNiCrabYGl-NqJwSYs2-12" target="dwNiCrabYGl-NqJwSYs2-10">
          <mxGeometry width="50" height="50" relative="1" as="geometry">
            <mxPoint x="590" y="240" as="sourcePoint" />
            <mxPoint x="640" y="190" as="targetPoint" />
          </mxGeometry>
        </mxCell>
        <mxCell id="dwNiCrabYGl-NqJwSYs2-14" value="&lt;font style=&quot;font-size: 18px;&quot;&gt;Output Feature&lt;/font&gt;" style="shape=cube;whiteSpace=wrap;html=1;boundedLbl=1;backgroundOutline=1;darkOpacity=0.05;darkOpacity2=0.1;fillColor=#f8cecc;strokeColor=#b85450;" vertex="1" parent="1">
          <mxGeometry x="680" y="260" width="100" height="80" as="geometry" />
        </mxCell>
      </root>
    </mxGraphModel>
  </diagram>
</mxfile>
